<svg width="32" height="32" viewBox="0 0 32 32" fill="none" xmlns="http://www.w3.org/2000/svg">
<path d="M17.9999 2.7242C17.9999 2.97088 18.1805 3.17973 18.4229 3.22542C24.4447 4.3606 28.9999 9.64835 28.9999 16C28.9999 22.6855 23.9534 28.1923 17.4619 28.9187C17.2021 28.9478 16.9999 29.1641 16.9999 29.4255V30.4332C16.9999 30.7223 17.2452 30.9519 17.5327 30.9227C25.097 30.1549 30.9999 23.7668 30.9999 16C30.9999 8.59021 25.6271 2.43527 18.5648 1.21845C18.2668 1.16711 17.9999 1.40086 17.9999 1.70323V2.7242Z" fill="#121316"/>
<path d="M6.16246 25.145C6.36622 25.0008 6.64437 25.0297 6.82113 25.206C7.56412 25.9468 8.39627 26.5983 9.30008 27.1429C9.58322 27.3135 9.64586 27.7043 9.41761 27.9434L8.71836 28.676C8.55846 28.8435 8.30398 28.88 8.10716 28.758C7.06546 28.1122 6.10871 27.3423 5.25754 26.4691C5.04831 26.2544 5.08715 25.9059 5.33185 25.7327L6.16246 25.145Z" fill="#121316"/>
<path d="M2.82268 23.1726C2.96249 23.4289 3.29468 23.4991 3.533 23.3305L4.35775 22.7469C4.56851 22.5978 4.63011 22.3132 4.50908 22.0851C3.90846 20.9532 3.47017 19.7221 3.22525 18.4226C3.17956 18.1802 2.97079 18.0001 2.7241 18.0001H1.70314C1.40076 18.0001 1.16695 18.2665 1.21828 18.5645C1.50131 20.2074 2.05156 21.7589 2.82268 23.1726Z" fill="#121316"/>
<path d="M1.56672 15.0001C1.27765 15.0001 1.04803 14.7555 1.07721 14.4679C1.25283 12.7368 1.72281 11.0927 2.4363 9.58646C2.56597 9.31271 2.91139 9.22959 3.15866 9.40455L3.99274 9.99474C4.19363 10.1369 4.26023 10.4037 4.15842 10.6277C3.60622 11.8429 3.23558 13.1581 3.08114 14.5387C3.05208 14.7985 2.83583 15.0001 2.5744 15.0001H1.56672Z" fill="#121316"/>
<path d="M4.68189 6.1558C4.49217 6.37373 4.53843 6.70579 4.7743 6.87269L5.59669 7.45461C5.81024 7.60572 6.10343 7.56593 6.27716 7.37033C8.35432 5.03178 11.2624 3.44779 14.5384 3.08127C14.7982 3.0522 14.9999 2.83594 14.9999 2.57451V1.56682C14.9999 1.27776 14.7552 1.04815 14.4676 1.07733C10.572 1.47261 7.11695 3.35855 4.68189 6.1558Z" fill="#121316"/>
<path d="M19.9999 16C19.9999 18.2092 18.2091 20 15.9999 20C13.7908 20 11.9999 18.2092 11.9999 16C11.9999 13.7909 13.7908 12 15.9999 12C18.2091 12 19.9999 13.7909 19.9999 16Z" fill="#121316"/>
</svg>
