<svg width="27" height="27" viewBox="0 0 27 27" fill="none" xmlns="http://www.w3.org/2000/svg">
<path fill-rule="evenodd" clip-rule="evenodd" d="M10.8 0.0526123C9.30883 0.0526123 8.1 1.27794 8.1 2.78945V4.15788H2.7C1.20883 4.15788 0 5.3832 0 6.89472V23.3158C0 24.8273 1.20883 26.0526 2.7 26.0526H24.3C25.7912 26.0526 27 24.8273 27 23.3158V6.89472C27 5.3832 25.7912 4.15788 24.3 4.15788H18.9V2.78945C18.9 1.27794 17.6912 0.0526123 16.2 0.0526123H10.8ZM16.2 4.15788V2.78945H10.8V4.15788H16.2ZM2 6.05261L25 6.05261V24H21C21 24 21 15.0621 21 14.6842C21 14.3063 20.6978 14 20.325 14H19.675C19.3022 14 19 14.3063 19 14.6842V24H8.32288V14.6842C8.32288 14.3063 8.02067 14 7.64788 14H6.99788C6.62508 14 6.32288 14.3063 6.32288 14.6842V24H2V6.05261Z" fill="#121316"/>
</svg>
