<svg width="24" height="24" viewBox="0 0 24 24" fill="none" xmlns="http://www.w3.org/2000/svg">
<path fill-rule="evenodd" clip-rule="evenodd" d="M7.53798 4.43219C7.4106 3.85626 6.58951 3.85626 6.46213 4.4322L6.44856 4.49357C6.22787 5.49138 5.44452 6.26823 4.4449 6.48058C3.88401 6.59974 3.88404 7.40028 4.44493 7.51947C5.44452 7.73187 6.22787 8.50872 6.44856 9.50651L6.46212 9.56786C6.58951 10.1438 7.41061 10.1438 7.53799 9.56786L7.55156 9.50651C7.77225 8.50872 8.5556 7.73187 9.55519 7.51947C10.1161 7.40028 10.1161 6.59974 9.55521 6.48058C8.5556 6.26823 7.77225 5.49138 7.55156 4.49357L7.53798 4.43219ZM11.5708 14.5505C12.1175 14.0038 12.1175 13.1173 11.5708 12.5706L11.4294 12.4292C10.8826 11.8824 9.9962 11.8824 9.44947 12.4292L4.82927 17.0494C4.28254 17.5961 4.28253 18.4825 4.82927 19.0293L4.97069 19.1707C5.51742 19.7174 6.40385 19.7174 6.95059 19.1707L11.5708 14.5505ZM16.5749 14.9113C16.7018 14.49 17.2982 14.49 17.4251 14.9113C17.6657 15.7096 18.2903 16.3343 19.0887 16.5748C19.51 16.7017 19.51 17.2982 19.0887 17.4251C18.2903 17.6656 17.6657 18.2903 17.4251 19.0887C17.2982 19.51 16.7018 19.51 16.5749 19.0887C16.3343 18.2903 15.7097 17.6656 14.9113 17.4251C14.49 17.2982 14.49 16.7017 14.9113 16.5748C15.7097 16.3343 16.3343 15.7096 16.5749 14.9113ZM19.109 5.65098C19.2669 5.181 18.819 4.7331 18.3491 4.89108L16.2522 5.59592C16.1281 5.63763 15.9915 5.61599 15.8863 5.53798L14.1099 4.21966C13.7117 3.92418 13.1473 4.21175 13.1523 4.70755L13.1747 6.91962C13.176 7.05051 13.1132 7.17377 13.0066 7.24964L11.2038 8.53177C10.7998 8.81913 10.8988 9.44475 11.3719 9.5932L13.4826 10.2555C13.6075 10.2947 13.7054 10.3925 13.7445 10.5174L14.4068 12.6281C14.5553 13.1012 15.1809 13.2003 15.4683 12.7962L16.7504 10.9935C16.8263 10.8868 16.9495 10.824 17.0804 10.8253L19.2925 10.8477C19.7883 10.8527 20.0759 10.2883 19.7804 9.89016L18.4621 8.1137C18.384 8.00859 18.3624 7.87195 18.4041 7.74788L19.109 5.65098Z" fill="black"/>
</svg>
