<?xml version="1.0" standalone="no"?>
<!DOCTYPE svg PUBLIC "-//W3C//DTD SVG 20010904//EN"
 "http://www.w3.org/TR/2001/REC-SVG-20010904/DTD/svg10.dtd">
<svg version="1.0" xmlns="http://www.w3.org/2000/svg"
 width="500.000000pt" height="500.000000pt" viewBox="0 0 500.000000 500.000000"
 preserveAspectRatio="xMidYMid meet">
<metadata>
Created by potrace 1.16, written by Peter Selinger 2001-2019
</metadata>
<g transform="translate(0.000000,500.000000) scale(0.100000,-0.100000)"
fill="#000000" stroke="none">
<path d="M2260 4959 c-199 -21 -430 -73 -599 -135 -150 -56 -384 -174 -516
-261 -825 -546 -1243 -1506 -1080 -2478 41 -242 106 -437 224 -680 126 -257
262 -447 466 -651 376 -376 836 -608 1378 -696 177 -28 534 -30 707 -4 549 84
1020 317 1396 691 140 139 218 234 320 386 388 582 510 1312 332 1999 -54 209
-162 463 -280 659 -129 214 -332 445 -538 616 -259 214 -618 400 -926 480
-287 75 -612 102 -884 74z m450 -1019 c88 0 160 2 160 5 0 2 -7 19 -16 38 -15
31 -20 33 -62 33 -144 1 -218 164 -125 275 99 118 293 42 293 -114 0 -25 20
-80 59 -162 l58 -125 89 190 89 190 92 0 c51 0 93 -3 93 -7 0 -5 -63 -127
-138 -273 -76 -146 -137 -267 -136 -269 7 -8 240 -1 298 9 91 16 179 47 291
102 l100 50 -185 -186 -185 -186 170 -170 170 -170 -55 16 c-93 27 -190 77
-310 159 -245 168 -272 185 -286 185 -10 0 -14 -13 -14 -50 l0 -50 -85 0 -85
0 0 75 0 75 -27 0 c-36 0 -198 -27 -242 -40 -19 -5 -36 -8 -39 -6 -2 2 26 25
61 50 65 46 167 97 220 110 15 3 27 11 27 18 0 6 -18 45 -41 87 l-40 77 -87
-29 c-48 -15 -131 -36 -184 -45 l-98 -17 0 -177 0 -178 -85 0 -85 0 0 161 0
160 -22 -7 c-82 -24 -81 -24 -142 -173 l-59 -141 -67 0 c-46 0 -70 4 -73 13
-2 7 -11 -1 -21 -18 l-17 -30 6 60 c5 57 2 68 -55 205 -34 80 -73 176 -88 213
l-27 69 -3 -256 -2 -256 -90 0 -90 0 0 420 0 420 98 0 99 0 119 -279 119 -279
54 66 c44 53 71 106 145 276 l91 211 72 3 73 3 27 88 28 87 3 -253 2 -253 160
0z m1183 -274 c43 -17 84 -67 97 -116 13 -48 1 -104 -32 -145 -25 -32 -91 -64
-132 -65 -51 0 -114 38 -141 84 -82 140 59 305 208 242z m-433 -563 c30 -9 82
-29 115 -46 33 -17 76 -33 95 -36 28 -5 36 -11 38 -31 2 -16 42 -62 115 -134
l112 -108 3 136 3 136 177 0 c250 0 351 -28 447 -125 100 -99 140 -267 100
-419 -47 -178 -209 -296 -407 -296 -40 0 -68 -6 -90 -20 -44 -27 -122 -27
-166 0 -18 11 -39 20 -46 20 -27 0 -33 80 -21 273 l7 97 -51 0 -51 0 -1 -237
-1 -238 -38 80 c-22 44 -50 118 -64 165 l-25 85 0 -112 -1 -113 -66 0 c-58 0
-65 -2 -60 -17 18 -46 28 -120 32 -233 11 -330 29 -427 115 -590 l39 -75 -175
175 -175 175 -55 -55 c-50 -49 -55 -58 -55 -98 l0 -44 43 8 c49 9 57 9 161 -1
l79 -8 -6 -93 c-6 -108 -30 -162 -85 -196 -43 -26 -130 -28 -167 -4 l-25 16 0
-35 0 -34 158 -3 157 -3 3 -67 3 -68 -246 0 -245 0 0 195 c0 107 -3 195 -7
195 -4 0 -17 -10 -30 -22 -30 -28 -29 -19 7 82 28 80 30 94 30 237 l0 152 106
3 106 3 39 64 c72 119 83 161 84 302 l0 125 -155 235 -155 234 -3 -277 -2
-278 -85 0 -85 0 0 420 0 420 83 0 84 0 186 -282 187 -283 0 252 0 251 -52 45
c-29 25 -82 64 -118 87 l-65 41 55 -6 c30 -4 80 -14 110 -22z m-2070 -83 c198
0 265 -12 334 -59 139 -96 131 -322 -13 -408 -30 -18 -58 -34 -63 -35 -5 -2
34 -77 86 -166 53 -90 96 -165 96 -167 0 -3 -44 -5 -97 -5 l-98 1 -90 159 -90
160 -37 0 -38 0 0 -65 c0 -38 6 -78 15 -94 38 -74 148 -178 259 -245 l56 -34
-48 5 c-100 10 -223 51 -282 93 -22 15 -44 20 -99 20 l-71 0 0 60 c0 57 -2 63
-42 106 -37 40 -141 128 -175 148 -10 5 -11 1 -3 -19 16 -41 11 -116 -9 -161
-10 -22 -36 -55 -57 -72 -65 -54 -111 -62 -351 -62 l-213 0 0 421 0 421 223
-3 c200 -2 225 -1 257 16 79 42 180 11 222 -69 38 -74 21 -158 -44 -209 -41
-33 -52 -44 -85 -85 l-25 -33 123 3 124 3 3 240 3 240 27 -52 26 -53 176 0z
m1118 -27 c45 -124 203 -565 243 -676 l49 -138 -91 3 -91 3 -27 75 -27 75
-166 3 -166 2 -6 -25 c-4 -14 -16 -50 -27 -80 l-20 -55 -91 0 c-79 0 -89 2
-84 16 5 13 274 762 291 812 3 8 33 12 104 12 99 0 99 0 109 -27z m-948 -1573
l0 -349 138 -3 137 -3 3 -67 3 -68 -226 0 -225 0 0 420 0 420 85 0 85 0 0
-350z m630 -70 l0 -420 -85 0 -85 0 -1 158 c0 86 -2 225 -3 307 -2 83 -1 201
2 263 l5 112 84 0 83 0 0 -420z m750 381 c0 -21 3 -53 6 -70 l7 -31 -177 0
-176 0 0 -105 0 -105 130 0 130 0 0 -70 0 -70 -130 0 -130 0 0 -175 0 -175
-90 0 -90 0 0 420 0 420 260 0 260 0 0 -39z m1278 -734 c46 -48 52 -94 17
-135 l-27 -33 -50 63 c-64 81 -65 85 -38 114 32 33 60 30 98 -9z m-3238 -92
c10 -12 7 -21 -17 -52 -48 -62 -47 -64 18 -33 47 22 66 27 76 18 7 -6 13 -14
13 -18 0 -17 -131 -112 -145 -106 -15 6 -21 26 -7 26 4 1 21 12 37 26 l30 25
-40 -16 c-22 -9 -45 -19 -51 -22 -27 -11 -23 20 8 64 l32 48 -44 -38 c-43 -36
-65 -43 -65 -18 0 11 122 111 136 111 3 0 12 -7 19 -15z m331 -255 c52 -28
-17 -150 -86 -150 -40 0 -70 30 -61 63 3 13 22 40 41 60 37 38 69 46 106 27z
m2433 -21 c8 -12 12 -27 10 -33 -3 -7 4 -21 16 -31 11 -10 20 -27 20 -38 0
-20 -54 -77 -74 -77 -10 0 -76 141 -76 162 0 10 52 37 72 38 9 0 24 -10 32
-21z m-2319 -49 c4 -6 -3 -27 -14 -46 -30 -51 -26 -53 19 -9 51 50 72 38 41
-24 -25 -48 -19 -53 16 -11 22 27 63 41 63 23 0 -13 -124 -133 -137 -133 -23
0 -24 19 -3 61 l22 41 -41 -32 c-24 -20 -46 -30 -56 -26 -13 5 -9 18 25 86 39
78 52 91 65 70z m389 -180 c24 -24 14 -67 -19 -82 -19 -9 -25 -19 -25 -45 0
-27 -4 -33 -21 -33 -19 0 -21 4 -16 35 7 45 -8 54 -28 15 -8 -16 -20 -30 -25
-30 -23 0 -18 26 20 96 39 70 44 75 69 69 14 -3 34 -15 45 -25z m1032 -141
c-3 -34 -6 -75 -6 -90 0 -22 -5 -29 -19 -29 -13 0 -24 15 -38 53 l-21 52 -7
-57 c-5 -40 -12 -58 -22 -58 -11 0 -13 17 -11 87 3 74 6 88 20 91 13 3 24 -11
42 -50 l24 -53 1 58 c1 51 3 57 22 57 21 0 22 -3 15 -61z m-177 39 c0 -7 -6
-49 -12 -93 -9 -60 -16 -81 -29 -83 -12 -2 -21 12 -36 55 l-19 58 -8 -57 c-6
-49 -11 -58 -27 -58 -16 0 -19 5 -15 23 4 12 9 53 13 90 6 61 9 68 28 65 15
-2 24 -17 36 -58 l17 -55 7 55 c5 30 10 58 13 63 7 12 33 8 32 -5z m-211 -10
c19 -19 14 -99 -8 -135 -16 -27 -26 -33 -55 -33 -28 0 -38 5 -46 24 -15 33 -3
108 22 135 22 23 68 28 87 9z"/>
<path d="M4120 2752 l0 -118 33 -13 c17 -7 70 -26 117 -42 l85 -28 -117 -1
-118 0 0 -39 c0 -33 4 -40 30 -51 36 -15 87 -71 96 -105 5 -18 13 -25 31 -25
54 0 109 25 154 70 57 57 73 110 67 223 -9 172 -97 247 -289 247 l-89 0 0
-118z"/>
<path d="M530 2774 l0 -106 103 4 c77 2 110 8 130 21 37 24 44 60 19 92 -11
14 -23 39 -27 54 -8 36 -24 41 -137 41 l-88 0 0 -106z"/>
<path d="M1380 2750 l0 -120 68 0 c90 1 140 13 171 45 22 21 26 35 26 81 0 50
-3 58 -33 85 -31 28 -36 29 -132 29 l-100 0 0 -120z"/>
<path d="M530 2430 l0 -110 105 0 c123 0 159 13 181 65 17 42 9 87 -22 119
-30 29 -62 36 -175 36 l-89 0 0 -110z"/>
<path d="M2339 2643 l-54 -158 109 -3 c60 -1 111 -1 113 2 7 6 -100 316 -108
316 -4 0 -31 -71 -60 -157z"/>
</g>
</svg>
